<svg width="24" height="24" viewBox="0 0 24 24" fill="none" xmlns="http://www.w3.org/2000/svg">
<path d="M11.8852 11.2212C12.3575 11.4958 13.1298 11.4958 13.6021 11.2209L22.2299 6.19856C22.7022 5.92367 22.7016 5.47491 22.2288 5.20089L13.6033 0.205296C13.1307 -0.0684319 12.3572 -0.0684319 11.8843 0.205296L3.25622 5.20234C2.78337 5.47607 2.78308 5.92483 3.25535 6.19972L11.8852 11.2212Z" fill="#CEDAE7"/>
<path d="M12.3719 13.3628C12.3719 12.815 11.9856 12.1425 11.5133 11.8676L2.85859 6.83134C2.38632 6.55646 2 6.77968 2 7.32713V17.3787C2 17.9264 2.38661 18.5981 2.85946 18.8722L11.5122 23.8831C11.985 24.1569 12.3716 23.9331 12.3716 23.3853L12.3719 13.3628Z" fill="#CEDAE7"/>
<path d="M13.975 11.8679C13.5028 12.1428 13.1165 12.8156 13.1165 13.3631V23.3856C13.1165 23.9334 13.5034 24.1572 13.9762 23.8835L22.6283 18.8725C23.1012 18.5988 23.4881 17.9268 23.4881 17.379V7.32542C23.4881 6.77797 23.1018 6.55475 22.6295 6.82964L13.975 11.8679Z" fill="#CEDAE7"/>
</svg>
