<svg width="25" height="24" viewBox="0 0 25 24" fill="none" xmlns="http://www.w3.org/2000/svg">
<path d="M15.2098 14.2776C14.995 14.0628 14.6468 14.0628 14.432 14.2776C14.2172 14.4924 14.2172 14.8406 14.432 15.0554L15.2098 14.2776ZM19.7657 20.3891C19.9805 20.6039 20.3288 20.6039 20.5435 20.3891C20.7583 20.1743 20.7583 19.8261 20.5435 19.6113L19.7657 20.3891ZM10.3771 4V4.55V4ZM10.3771 15.8954C10.0733 15.8954 9.8271 16.1416 9.8271 16.4454C9.8271 16.7491 10.0733 16.9954 10.3771 16.9954V15.8954ZM14.432 15.0554L19.7657 20.3891L20.5435 19.6113L15.2098 14.2776L14.432 15.0554ZM10.3771 15.8954C8.35044 15.8954 6.47774 14.8142 5.46441 13.059L4.51179 13.609C5.72161 15.7045 7.95745 16.9954 10.3771 16.9954V15.8954ZM5.46441 13.059C4.45109 11.3039 4.45109 9.14147 5.46441 7.38634L4.51179 6.83634C3.30196 8.93181 3.30196 11.5135 4.51179 13.609L5.46441 13.059ZM5.46441 7.38634C6.47774 5.63121 8.35044 4.55 10.3771 4.55V3.45C7.95745 3.45 5.72161 4.74087 4.51179 6.83634L5.46441 7.38634ZM10.3771 4.55C13.51 4.55 16.0498 7.08974 16.0498 10.2227H17.1498C17.1498 6.48223 14.1175 3.45 10.3771 3.45V4.55ZM16.0498 10.2227C16.0498 13.3556 13.51 15.8954 10.3771 15.8954V16.9954C14.1175 16.9954 17.1498 13.9631 17.1498 10.2227H16.0498Z" fill="#0B4589"/>
</svg>
