<svg width="14" height="14" viewBox="0 0 14 14" fill="none" xmlns="http://www.w3.org/2000/svg">
<path d="M9.37095 8.8391C9.15638 8.6241 8.80814 8.62375 8.59314 8.83832C8.37813 9.0529 8.37779 9.40114 8.59236 9.61614L9.37095 8.8391ZM12.5885 13.6202C12.803 13.8352 13.1513 13.8356 13.3663 13.621C13.5813 13.4064 13.5816 13.0582 13.367 12.8432L12.5885 13.6202ZM1.60798 8.22051L1.13139 8.49503L1.60798 8.22051ZM1.61264 3.55374L1.1366 3.27826L1.61264 3.55374ZM5.65652 1.22439L5.65597 1.77439L5.65652 1.22439ZM5.64774 10.0079C5.34399 10.0076 5.0975 10.2536 5.09719 10.5574C5.09689 10.8611 5.34289 11.1076 5.64664 11.1079L5.64774 10.0079ZM8.59236 9.61614L12.5885 13.6202L13.367 12.8432L9.37095 8.8391L8.59236 9.61614ZM5.64774 10.0079C4.17696 10.0065 2.81869 9.22045 2.08457 7.94599L1.13139 8.49503C2.06167 10.11 3.78287 11.1061 5.64664 11.1079L5.64774 10.0079ZM2.08457 7.94599C1.35045 6.67152 1.35202 5.10221 2.08868 3.82921L1.1366 3.27826C0.203106 4.89141 0.201119 6.88003 1.13139 8.49503L2.08457 7.94599ZM2.08868 3.82921C2.82535 2.55621 4.18519 1.77292 5.65597 1.77439L5.65707 0.674389C3.79329 0.672527 2.0701 1.66512 1.1366 3.27826L2.08868 3.82921ZM5.65597 1.77439C7.9296 1.77666 9.7709 3.62164 9.76863 5.89527L10.8686 5.89637C10.8715 3.01523 8.53821 0.677267 5.65707 0.674389L5.65597 1.77439ZM9.76863 5.89527C9.76636 8.16891 7.92137 10.0102 5.64774 10.0079L5.64664 11.1079C8.52779 11.1108 10.8658 8.77752 10.8686 5.89637L9.76863 5.89527Z" fill="#0B4589"/>
</svg>
