<svg width="44" height="88" viewBox="0 0 44 88" fill="none" xmlns="http://www.w3.org/2000/svg">
<g clip-path="url(#clip0_6142_19622)">
<path d="M8.88154 49.1697C8.63067 47.6364 8.45167 46.0923 8.3581 44.5428C6.9939 44.3289 4.63163 43.6833 3.20641 41.6752C1.69168 39.4989 1.10179 37.8162 0.857702 36.759C0.617678 35.6911 0.722094 35.2257 0.719382 35.2284C0.720738 35.2257 1.75677 35.3279 3.1047 35.8081C4.45534 36.2856 6.11381 37.1343 7.43733 38.4982C7.79533 38.8681 8.0896 39.242 8.3364 39.6146C8.42048 37.944 8.59948 36.2802 8.87612 34.6312C7.68278 34.155 5.61342 33.0629 4.70079 30.9014C3.7529 28.5946 3.56712 26.9254 3.57254 25.9005C3.58611 24.8702 3.78952 24.46 3.7868 24.464C3.81392 24.4291 7.43462 25.7822 9.25581 28.8663C9.52567 29.3142 9.72366 29.7487 9.87554 30.171C9.90808 30.054 9.93521 29.9356 9.96911 29.82C10.4302 28.2086 11.0011 26.6269 11.6601 25.0827C10.6919 24.3968 9.03071 22.9482 8.6605 20.7463C8.29301 18.4342 8.50184 16.8699 8.74594 15.9365C8.9941 14.9949 9.29107 14.6681 9.28429 14.6681C9.31684 14.6439 12.3097 16.6816 13.2684 19.8963C13.4189 20.3791 13.4935 20.827 13.5342 21.2574C14.4685 19.5923 15.5263 17.9944 16.7033 16.4852C16.0036 15.6379 14.8591 13.9337 15.0327 11.8529C15.2374 9.67261 15.8056 8.30202 16.2626 7.51786C16.7237 6.73101 17.079 6.50639 17.079 6.50639C17.1142 6.49159 19.3178 9.04044 19.4033 12.1757C19.4222 12.6599 19.3761 13.0917 19.3056 13.4979C20.7132 12.048 22.2483 10.7217 23.885 9.53004C23.4891 8.6033 22.9073 6.78077 23.5826 4.94614C24.3054 3.04022 25.1665 1.9588 25.774 1.38043C26.3911 0.795342 26.7789 0.69312 26.7762 0.69312C26.8114 0.689084 28.1322 3.51905 27.404 6.34229C27.2915 6.79557 27.1301 7.1816 26.9525 7.53669C27.1043 7.44926 27.2589 7.36856 27.4122 7.28247C27.5464 7.06458 27.7024 6.8292 27.9004 6.57095C28.592 5.66708 29.7297 4.58298 31.2648 3.99385C32.7998 3.40203 34.3729 3.43162 35.4998 3.63741C36.6334 3.83917 37.3426 4.18753 37.3426 4.18484C37.344 4.18753 36.8178 4.77397 35.9825 5.48012C35.1418 6.18896 34.0189 7.02019 32.6588 7.5461C31.3 8.06663 29.9073 8.21324 28.8035 8.25359C28.5106 8.26435 28.2462 8.2657 28.0061 8.26301C27.9627 8.28856 27.918 8.31278 27.8732 8.33699C28.1146 8.38137 28.3601 8.44324 28.6123 8.53874C31.258 9.58115 32.4662 12.5631 32.4893 12.5375C32.4554 12.5416 30.6288 13.627 28.1105 12.7016C26.6568 12.1744 25.3428 11.1401 24.5794 10.45C23.0646 11.5543 21.6421 12.7823 20.3294 14.118C20.6386 14.079 20.9641 14.0642 21.3139 14.0964C24.3597 14.4072 26.4901 17.1443 26.5077 17.112C26.4765 17.1295 25.0526 18.5943 22.0679 18.4665C20.3566 18.4046 18.6181 17.6864 17.6268 17.1995C16.5162 18.6265 15.5154 20.1343 14.6272 21.7067C14.9716 21.5547 15.3527 21.4363 15.7758 21.365C19.0168 20.858 21.9798 23.1055 21.9906 23.0679C21.9716 23.1015 20.9695 24.8191 17.7746 25.6033C15.9616 26.0673 13.8963 25.7875 12.7436 25.5522C12.1076 27.0478 11.5571 28.5799 11.1123 30.1428C11.0797 30.2571 11.0553 30.3741 11.0228 30.4898C11.3659 30.2114 11.7618 29.9599 12.2324 29.7595C15.453 28.4198 19.1022 30.0002 19.1022 29.9585C19.1022 29.9625 18.9476 30.4575 18.4106 31.1395C17.8695 31.8241 16.9515 32.6916 15.369 33.574C13.621 34.5586 11.3455 34.8034 10.0939 34.8518C9.83757 36.4941 9.67891 38.1485 9.61924 39.8083C9.91351 39.4236 10.2729 39.055 10.7299 38.7228C12.2283 37.6374 14.0359 37.3172 15.4476 37.2379C16.8606 37.1639 17.8912 37.3186 17.8912 37.3186C17.8912 37.3186 17.8519 37.827 17.4505 38.6273C17.0505 39.4343 16.2938 40.5252 14.8659 41.8689C13.3091 43.343 10.9753 44.1487 9.69654 44.4957C9.80909 46.0734 10.0152 47.6445 10.2946 49.2034C10.5142 48.7232 10.8099 48.243 11.2248 47.7803C12.5307 46.3277 14.3289 45.5986 15.7731 45.2046C17.22 44.8172 18.3211 44.7472 18.3211 44.7472C18.3211 44.7472 18.3821 45.2422 18.1367 46.1299C17.8899 47.0244 17.342 48.3076 16.1717 50.0669C14.9201 51.9755 12.665 53.3474 11.4255 53.9904C11.8527 55.439 12.3517 56.8647 12.9199 58.2622C13.0419 57.7 13.2467 57.1216 13.5884 56.5379C14.6258 54.7624 16.3331 53.6326 17.7421 52.9251C19.1537 52.2189 20.2779 51.9203 20.2766 51.9176C20.2806 51.9203 20.4311 52.3817 20.3457 53.3232C20.2698 54.2674 19.947 55.6851 19.1402 57.7834C18.2994 60.0135 16.287 61.9355 15.1506 62.8811C15.8287 64.1118 16.5704 65.3048 17.3637 66.4656C17.3705 65.8765 17.4573 65.2564 17.6756 64.6027C18.3618 62.5569 19.886 61.0411 21.1865 60.0188C22.4951 58.9966 23.5921 58.4532 23.5894 58.4505C23.5921 58.4545 23.8159 58.8594 23.904 59.8144C24.0003 60.7774 23.9488 62.2731 23.6003 64.631C23.2531 67.0937 21.6245 69.539 20.678 70.7724C21.554 71.7664 22.4666 72.7281 23.4294 73.6374C23.2992 73.0227 23.2463 72.3542 23.3291 71.6225C23.584 69.379 24.8248 67.4932 25.9436 66.1737C27.0691 64.8462 28.0753 64.0553 28.0753 64.0513C28.0794 64.0513 28.3614 64.3916 28.6272 65.325C28.9011 66.2638 29.1371 67.7891 29.3351 70.2869C29.5507 72.8398 28.4902 75.7087 27.8176 77.2085C28.8062 77.9159 29.8233 78.579 30.8715 79.1964C30.6111 78.6167 30.4145 77.9711 30.3345 77.2354C30.0823 74.8909 30.9352 72.6945 31.7841 71.0979C32.6439 69.496 33.4941 68.4576 33.4941 68.4576C33.4941 68.4576 33.8209 68.7212 34.2617 69.5928C34.7146 70.4631 35.2489 71.9413 36.0462 74.443C36.8748 76.9623 36.5222 80.1648 36.2225 81.8556C39.3578 83.0997 43.2776 84.0261 43.6383 84.0651C43.9989 84.104 42.9169 85.1382 41.9465 85.927C40.6948 85.6405 39.4554 85.2975 38.2404 84.8927C37.2477 84.5618 36.2741 84.1811 35.3126 83.7736C35.0862 84.0803 34.8204 84.4085 34.5125 84.7447C33.3382 86.0306 31.5211 87.4052 29.0856 87.5706C25.5367 87.7885 23.1568 87.2976 21.7587 86.8766C20.3457 86.4422 19.867 86.0629 19.867 86.0629C19.8643 86.0629 20.659 84.9855 22.095 83.8193C23.5298 82.6424 25.5801 81.3821 27.9858 80.7822C28.4238 80.6719 28.8388 80.602 29.2442 80.5482C28.3384 79.9712 27.4583 79.3619 26.5999 78.7203C26.3002 78.9705 25.9531 79.2381 25.5544 79.5058C24.1712 80.4285 22.1859 81.2947 19.9131 80.949C16.5989 80.4352 14.5228 79.5112 13.3199 78.8481C12.113 78.1702 11.7537 77.7155 11.7537 77.7182C11.7496 77.7182 12.7138 76.8749 14.2868 76.0705C15.8626 75.2581 18.0282 74.4928 20.3932 74.4296C20.8597 74.4161 21.2923 74.4417 21.7086 74.4834C20.8692 73.6374 20.0596 72.7631 19.2907 71.8538C18.9476 72.03 18.5516 72.2143 18.1014 72.3851C16.6193 72.9474 14.5933 73.3441 12.5673 72.5815C9.60704 71.4651 7.87263 70.225 6.89491 69.3763C5.91447 68.5168 5.6758 68.0285 5.6758 68.0285C5.6758 68.0259 6.73896 67.4246 8.36217 66.9821C9.98945 66.5288 12.1564 66.2289 14.3682 66.6405C14.8604 66.7306 15.3066 66.8557 15.7256 66.9982C15.011 65.8846 14.3424 64.7453 13.7268 63.5765C12.2134 63.9854 9.57042 64.3727 7.25291 62.947C4.72656 61.3531 3.361 59.891 2.62194 58.9253C1.8856 57.9488 1.76898 57.4417 1.76491 57.4458C1.76355 57.4431 2.8701 57.084 4.46755 56.975C6.06499 56.8607 8.14384 56.9884 10.1183 57.7914C10.5875 57.9824 11.0038 58.199 11.3862 58.4303C10.8709 57.088 10.4139 55.7241 10.0233 54.3401C8.5493 54.4208 5.99448 54.2661 4.10412 52.5081C2.06189 50.5793 1.0801 48.9707 0.58242 47.9363C0.0901682 46.8912 0.0820312 46.3949 0.0820312 46.3949C0.0820312 46.3949 1.17773 46.2698 2.68025 46.4675C4.18684 46.6626 6.0894 47.1723 7.76957 48.2887C8.19401 48.5658 8.56015 48.8644 8.88154 49.1697Z" fill="#CEDAE7"/>
</g>
<defs>
<clipPath id="clip0_6142_19622">
<rect width="44" height="88" fill="white"/>
</clipPath>
</defs>
</svg>
