<svg version="1.1" xmlns="http://www.w3.org/2000/svg" xmlns:xlink="http://www.w3.org/1999/xlink">
  <symbol id="plus" viewBox="0 0 20 22">
    <path d="M10.8108 0V9.77573H20V11.5009H10.8108V21.2766H9.18919V11.5009H0V9.77573H9.18919V0H10.8108Z"/>
  </symbol>
  <symbol id="arrow-bottom-left" viewBox="0 0 32 32">
    <path d="M22 10L10.4286 21.5714M20.5 22H10V11.5" stroke-width="1.5" stroke-linecap="round"/>
  </symbol>
  <symbol id="arrow-down" viewBox="0 0 32 32">
    <path d="M16 6.51465L16 23.8718M8.125 16.6396L16 24.5146L23.875 16.6396" stroke-width="1.5" stroke-linecap="round"/>
  </symbol>
  <symbol id="arrow-left" viewBox="0 0 32 32">
    <path d="M25.4854 16L8.12821 16M15.3604 8.125L7.48535 16L15.3604 23.875" stroke-width="1.5" stroke-linecap="round"/>
  </symbol>
  <symbol id="arrow-right" viewBox="0 0 32 32">
    <path d="M7 16L24.3571 16M17.125 8.125L25 16L17.125 23.875" stroke-width="1.5" stroke-linecap="round"/>
  </symbol>
  <symbol id="arrow-top-right" viewBox="0 0 32 32">
    <path d="M10 22L21.5714 10.4286M11.5 10H22V20.5" stroke-width="1.5" stroke-linecap="round"/>
  </symbol>
  <symbol id="arrow-drop" viewBox="0 0 32 32">
    <path d="M20 14L16 18L12 14" stroke-width="1.5" stroke-linecap="round" stroke-linejoin="round"/>
  </symbol>
  <symbol id="arrow-next" viewBox="0 0 32 32">
    <path fill-rule="evenodd" clip-rule="evenodd" d="M12.2803 7.21967C11.9874 6.92678 11.5126 6.92678 11.2197 7.21967C10.9268 7.51256 10.9268 7.98744 11.2197 8.28033L18.9002 15.9608L11.2197 23.6414C10.9268 23.9343 10.9268 24.4091 11.2197 24.702C11.5126 24.9949 11.9874 24.9949 12.2803 24.702L20.4806 16.5018C20.4842 16.4983 20.4877 16.4948 20.4913 16.4913C20.6378 16.3448 20.711 16.1528 20.711 15.9609C20.711 15.7689 20.6378 15.5769 20.4913 15.4304C20.4877 15.4269 20.4842 15.4234 20.4806 15.4199L12.2803 7.21967Z"/>
  </symbol>
  <symbol id="basket" viewBox="0 0 33 32">
    <path d="M7.16669 14H8.66669M25.1667 14H23.6667M23.6667 14L21.6667 22.5H10.6667L8.66669 14M23.6667 14H20.1667M8.66669 14H12.1667M12.1667 14L14.1667 8.5M12.1667 14H20.1667M20.1667 14L18.1667 8.5" stroke-width="1.5" stroke-linecap="round" stroke-linejoin="round"/>
    <path d="M13.1667 16.5V20" stroke-width="1.5" stroke-linecap="round" stroke-linejoin="round"/>
    <path d="M16.1667 16.5V20" stroke-width="1.5" stroke-linecap="round" stroke-linejoin="round"/>
    <path d="M19.1667 16.5V20" stroke-width="1.5" stroke-linecap="round" stroke-linejoin="round"/>
  </symbol>
  <symbol id="compare-l" viewBox="0 0 32 32">
    <path fill-rule="evenodd" clip-rule="evenodd" d="M3.75 7C3.33579 7 3 7.33579 3 7.75C3 8.16421 3.33579 8.5 3.75 8.5H18.3822C18.7964 8.5 19.1322 8.16421 19.1322 7.75C19.1322 7.33579 18.7964 7 18.3822 7H3.75ZM3.75 13.6508C3.33579 13.6508 3 13.9865 3 14.4008C3 14.815 3.33579 15.1508 3.75 15.1508H22.3728C22.787 15.1508 23.1228 14.815 23.1228 14.4008C23.1228 13.9865 22.787 13.6508 22.3728 13.6508H3.75ZM3 21.052C3 20.6378 3.33579 20.302 3.75 20.302H15.7218C16.136 20.302 16.4718 20.6378 16.4718 21.052C16.4718 21.4662 16.136 21.802 15.7218 21.802H3.75C3.33579 21.802 3 21.4662 3 21.052ZM26.0319 16.1016C26.4461 16.1016 26.7819 16.4374 26.7819 16.8516V20.3023H30.2324C30.6466 20.3023 30.9824 20.6381 30.9824 21.0523C30.9824 21.4665 30.6466 21.8023 30.2324 21.8023H26.7819V25.2528C26.7819 25.6671 26.4461 26.0028 26.0319 26.0028C25.6177 26.0028 25.2819 25.6671 25.2819 25.2528V21.8023H21.8311C21.4169 21.8023 21.0811 21.4665 21.0811 21.0523C21.0811 20.6381 21.4169 20.3023 21.8311 20.3023H25.2819V16.8516C25.2819 16.4374 25.6177 16.1016 26.0319 16.1016Z"/>
  </symbol>
  <symbol id="compare-s" viewBox="0 0 33 32">
    <path fill-rule="evenodd" clip-rule="evenodd" d="M7.58334 9C7.16913 9 6.83334 9.33579 6.83334 9.75C6.83334 10.1642 7.16913 10.5 7.58334 10.5H18.5833C18.9976 10.5 19.3333 10.1642 19.3333 9.75C19.3333 9.33579 18.9976 9 18.5833 9H7.58334ZM7.58334 14C7.16913 14 6.83334 14.3358 6.83334 14.75C6.83334 15.1642 7.16913 15.5 7.58334 15.5H21.5833C21.9976 15.5 22.3333 15.1642 22.3333 14.75C22.3333 14.3358 21.9976 14 21.5833 14H7.58334ZM6.83334 19.75C6.83334 19.3358 7.16913 19 7.58334 19H16.5833C16.9976 19 17.3333 19.3358 17.3333 19.75C17.3333 20.1642 16.9976 20.5 16.5833 20.5H7.58334C7.16913 20.5 6.83334 20.1642 6.83334 19.75ZM24.3335 15.8423C24.7477 15.8423 25.0835 16.1781 25.0835 16.5923V19.0002H27.4914C27.9056 19.0002 28.2414 19.336 28.2414 19.7502C28.2414 20.1644 27.9056 20.5002 27.4914 20.5002H25.0835V22.9081C25.0835 23.3223 24.7477 23.6581 24.3335 23.6581C23.9193 23.6581 23.5835 23.3223 23.5835 22.9081V20.5002H21.1756C20.7614 20.5002 20.4256 20.1644 20.4256 19.7502C20.4256 19.336 20.7614 19.0002 21.1756 19.0002H23.5835V16.5923C23.5835 16.1781 23.9193 15.8423 24.3335 15.8423Z"/>
  </symbol>
  <symbol id="fav-l" viewBox="0 0 32 32">
    <path d="M16.5371 7.75071L17.639 6.6201C17.6394 6.61974 17.6397 6.61937 17.6401 6.61901C18.8478 5.39094 20.4551 4.7514 22.1607 4.75C23.8593 4.77692 25.4406 5.48728 26.6122 6.75559L26.6128 6.75616C28.8976 9.22438 28.7883 13.3002 26.3007 15.8311L25.5841 16.5602L25.6027 16.5697L16.1388 26.1982C16.1059 26.2317 16.0664 26.25 16.0093 26.25C15.9705 26.25 15.9207 26.235 15.8706 26.1888L5.69922 15.8406C3.21124 13.3094 3.1032 9.22467 5.38635 6.7666L5.3878 6.76503C6.55907 5.49681 8.14037 4.78644 9.83932 4.75951C11.5622 4.76089 13.1521 5.39969 14.3608 6.61998L15.4629 7.75071L16 8.30178L16.5371 7.75071Z" stroke-width="1.5"/>
  </symbol>
  <symbol id="fav-s" viewBox="0 0 33 32">
    <path d="M23.5516 16.3392L23.5659 16.3462L16.5072 23.2467L8.68916 15.6041C6.84792 13.8041 6.7787 10.9201 8.45219 9.18888L8.45367 9.18734C9.31987 8.28614 10.4938 7.77666 11.7621 7.75703C13.0517 7.75831 14.2326 8.21757 15.1262 9.08418L15.9734 9.91944L16.5 10.4385L17.0265 9.91943L17.8736 9.08431C17.874 9.08396 17.8743 9.08361 17.8747 9.08326C18.7672 8.2113 19.9613 7.7513 21.2379 7.75C22.5059 7.76962 23.6799 8.27909 24.5464 9.18037L24.5469 9.18094C26.2221 10.9198 26.1516 13.7975 24.3108 15.597L23.5516 16.3392Z" stroke-width="1.5"/>
  </symbol>
  <symbol id="view-grid" viewBox="0 0 32 32">
    <path fill-rule="evenodd" clip-rule="evenodd" d="M10 9.5H13C13.2761 9.5 13.5 9.72386 13.5 10V13C13.5 13.2761 13.2761 13.5 13 13.5H10C9.72386 13.5 9.5 13.2761 9.5 13V10C9.5 9.72386 9.72386 9.5 10 9.5ZM8 10C8 8.89543 8.89543 8 10 8H13C14.1046 8 15 8.89543 15 10V13C15 14.1046 14.1046 15 13 15H10C8.89543 15 8 14.1046 8 13V10ZM10 18.5H13C13.2761 18.5 13.5 18.7239 13.5 19V22C13.5 22.2761 13.2761 22.5 13 22.5H10C9.72386 22.5 9.5 22.2761 9.5 22V19C9.5 18.7239 9.72386 18.5 10 18.5ZM8 19C8 17.8954 8.89543 17 10 17H13C14.1046 17 15 17.8954 15 19V22C15 23.1046 14.1046 24 13 24H10C8.89543 24 8 23.1046 8 22V19ZM22 9.5H19C18.7239 9.5 18.5 9.72386 18.5 10V13C18.5 13.2761 18.7239 13.5 19 13.5H22C22.2761 13.5 22.5 13.2761 22.5 13V10C22.5 9.72386 22.2761 9.5 22 9.5ZM19 8C17.8954 8 17 8.89543 17 10V13C17 14.1046 17.8954 15 19 15H22C23.1046 15 24 14.1046 24 13V10C24 8.89543 23.1046 8 22 8H19ZM19 18.5H22C22.2761 18.5 22.5 18.7239 22.5 19V22C22.5 22.2761 22.2761 22.5 22 22.5H19C18.7239 22.5 18.5 22.2761 18.5 22V19C18.5 18.7239 18.7239 18.5 19 18.5ZM17 19C17 17.8954 17.8954 17 19 17H22C23.1046 17 24 17.8954 24 19V22C24 23.1046 23.1046 24 22 24H19C17.8954 24 17 23.1046 17 22V19Z"/>
  </symbol>
  <symbol id="view-list" viewBox="0 0 32 32">
    <path fill-rule="evenodd" clip-rule="evenodd" d="M7 9.75C7 9.33579 7.33579 9 7.75 9H23.75C24.1642 9 24.5 9.33579 24.5 9.75C24.5 10.1642 24.1642 10.5 23.75 10.5H7.75C7.33579 10.5 7 10.1642 7 9.75ZM7 15.75C7 15.3358 7.33579 15 7.75 15H23.75C24.1642 15 24.5 15.3358 24.5 15.75C24.5 16.1642 24.1642 16.5 23.75 16.5H7.75C7.33579 16.5 7 16.1642 7 15.75ZM7.75 21C7.33579 21 7 21.3358 7 21.75C7 22.1642 7.33579 22.5 7.75 22.5H23.75C24.1642 22.5 24.5 22.1642 24.5 21.75C24.5 21.3358 24.1642 21 23.75 21H7.75Z"/>
  </symbol>
  <symbol id="search-l" viewBox="0 0 32 32">
    <path d="M20.53 19.4696C20.2371 19.1767 19.7622 19.1767 19.4693 19.4696C19.1764 19.7625 19.1764 20.2374 19.4693 20.5303L20.53 19.4696ZM27.4694 28.5303C27.7623 28.8232 28.2372 28.8232 28.53 28.5303C28.8229 28.2374 28.8229 27.7626 28.53 27.4697L27.4694 28.5303ZM13.3334 4V4.75V4ZM13.3334 21.9168C12.9192 21.9168 12.5834 22.2526 12.5834 22.6668C12.5834 23.081 12.9192 23.4168 13.3334 23.4168V21.9168ZM19.4693 20.5303L27.4694 28.5303L28.53 27.4697L20.53 19.4696L19.4693 20.5303ZM13.3334 21.9168C10.2668 21.9168 7.43323 20.2808 5.89996 17.6251L4.60092 18.3751C6.40214 21.4949 9.73094 23.4168 13.3334 23.4168V21.9168ZM5.89996 17.6251C4.36668 14.9694 4.36668 11.6974 5.89996 9.04169L4.60092 8.29169C2.79969 11.4115 2.79969 15.2553 4.60092 18.3751L5.89996 17.6251ZM5.89996 9.04169C7.43323 6.38598 10.2668 4.75 13.3334 4.75V3.25C9.73094 3.25 6.40214 5.17188 4.60092 8.29169L5.89996 9.04169ZM13.3334 4.75C18.0739 4.75 21.9168 8.59291 21.9168 13.3334H23.4168C23.4168 7.76449 18.9023 3.25 13.3334 3.25V4.75ZM21.9168 13.3334C21.9168 18.0739 18.0739 21.9168 13.3334 21.9168V23.4168C18.9023 23.4168 23.4168 18.9023 23.4168 13.3334H21.9168Z"/>
  </symbol>
  <symbol id="search-s" viewBox="0 0 32 32">
    <path d="M18.8633 17.8027C18.5704 17.5098 18.0956 17.5098 17.8027 17.8027C17.5098 18.0956 17.5098 18.5704 17.8027 18.8633L18.8633 17.8027ZM22.4693 23.53C22.7622 23.8229 23.2371 23.8229 23.53 23.53C23.8229 23.2371 23.8229 22.7622 23.53 22.4693L22.4693 23.53ZM14.4444 9V9.75V9ZM14.4444 19.1389C14.0302 19.1389 13.6944 19.4747 13.6944 19.8889C13.6944 20.3031 14.0302 20.6389 14.4444 20.6389V19.1389ZM17.8027 18.8633L22.4693 23.53L23.53 22.4693L18.8633 17.8027L17.8027 18.8633ZM14.4444 19.1389C12.7673 19.1389 11.2175 18.2441 10.3789 16.7917L9.0799 17.5417C10.1864 19.4582 12.2314 20.6389 14.4444 20.6389V19.1389ZM10.3789 16.7917C9.54035 15.3392 9.54035 13.5497 10.3789 12.0972L9.0799 11.3472C7.97337 13.2638 7.97337 15.6251 9.0799 17.5417L10.3789 16.7917ZM10.3789 12.0972C11.2175 10.6448 12.7673 9.75 14.4444 9.75V8.25C12.2314 8.25 10.1864 9.43065 9.0799 11.3472L10.3789 12.0972ZM14.4444 9.75C17.0371 9.75 19.1389 11.8518 19.1389 14.4444H20.6389C20.6389 11.0233 17.8655 8.25 14.4444 8.25V9.75ZM19.1389 14.4444C19.1389 17.0371 17.0371 19.1389 14.4444 19.1389V20.6389C17.8655 20.6389 20.6389 17.8655 20.6389 14.4444H19.1389Z"/>
  </symbol>
  <symbol id="share" viewBox="0 0 32 32">
    <path d="M20.1112 5V10.5263C12.3333 10.5263 6.22221 15.5 4 26C9.55552 18.2632 13.4444 17.1579 20.1112 17.1579V22.6842L29 13.8421L20.1112 5Z" stroke-width="1.5" stroke-linecap="round" stroke-linejoin="round"/>
  </symbol>
  <symbol id="trash" viewBox="0 0 32 32">
    <path fill-rule="evenodd" clip-rule="evenodd" d="M14.0039 9.67085C14.1133 9.56146 14.2616 9.5 14.4163 9.5H17.083C17.2377 9.5 17.3861 9.56146 17.4955 9.67085C17.6049 9.78025 17.6663 9.92862 17.6663 10.0833V10.667H13.833V10.0833C13.833 9.92862 13.8945 9.78025 14.0039 9.67085ZM12.333 10.667V10.0833C12.333 9.5308 12.5525 9.00089 12.9432 8.61019C13.3339 8.21949 13.8638 8 14.4163 8H17.083C17.6355 8 18.1654 8.21949 18.5561 8.61019C18.9468 9.00089 19.1663 9.5308 19.1663 10.0833V10.667H20.394C20.4014 10.6668 20.4089 10.6667 20.4163 10.6667C20.4238 10.6667 20.4312 10.6668 20.4387 10.667H21.75C22.1642 10.667 22.5 11.0028 22.5 11.417C22.5 11.8312 22.1642 12.167 21.75 12.167H21.1663V20.75C21.1663 21.3025 20.9468 21.8324 20.5561 22.2231C20.1654 22.6138 19.6355 22.8333 19.083 22.8333H12.4163C11.8638 22.8333 11.3339 22.6138 10.9432 22.2231C10.5525 21.8324 10.333 21.3025 10.333 20.75V12.167H9.75C9.33579 12.167 9 11.8312 9 11.417C9 11.0028 9.33579 10.667 9.75 10.667H11.0607C11.0681 10.6668 11.0755 10.6667 11.083 10.6667C11.0905 10.6667 11.0979 10.6668 11.1053 10.667H12.333ZM11.833 12.167V20.75C11.833 20.9047 11.8945 21.0531 12.0039 21.1625C12.1133 21.2719 12.2616 21.3333 12.4163 21.3333H19.083C19.2377 21.3333 19.3861 21.2719 19.4955 21.1625C19.6049 21.0531 19.6663 20.9047 19.6663 20.75V12.167H11.833Z"/>
  </symbol>
  <symbol id="user" viewBox="0 0 33 32">
    <path d="M21.5395 23C21.5395 23.4142 21.8753 23.75 22.2895 23.75C22.7037 23.75 23.0395 23.4142 23.0395 23H21.5395ZM9.75 23C9.75 23.4142 10.0858 23.75 10.5 23.75C10.9142 23.75 11.25 23.4142 11.25 23H9.75ZM23.0395 23C23.0395 21.6217 22.1593 20.4829 20.9643 19.7262C19.7601 18.9636 18.1425 18.5167 16.3947 18.5167V20.0167C17.9028 20.0167 19.2326 20.405 20.1618 20.9935C21.1002 21.5877 21.5395 22.3157 21.5395 23H23.0395ZM16.3947 18.5167C14.647 18.5167 13.0294 18.9636 11.8252 19.7262C10.6302 20.4829 9.75 21.6217 9.75 23H11.25C11.25 22.3157 11.6892 21.5877 12.6277 20.9935C13.5569 20.405 14.8867 20.0167 16.3947 20.0167V18.5167ZM16.3948 15.7167C14.6019 15.7167 13.215 14.3452 13.215 12.7333H11.715C11.715 15.2452 13.8469 17.2167 16.3948 17.2167V15.7167ZM13.215 12.7333C13.215 11.1215 14.6019 9.75 16.3948 9.75V8.25C13.8469 8.25 11.715 10.2215 11.715 12.7333H13.215ZM16.3948 9.75C18.1877 9.75 19.5746 11.1215 19.5746 12.7333H21.0746C21.0746 10.2215 18.9427 8.25 16.3948 8.25V9.75ZM19.5746 12.7333C19.5746 14.3452 18.1877 15.7167 16.3948 15.7167V17.2167C18.9427 17.2167 21.0746 15.2452 21.0746 12.7333H19.5746Z"/>
  </symbol>
  <symbol id="vk" viewBox="0 0 24 24">
    <path d="M0 11.52C0 6.08942 0 3.37414 1.68187 1.68707C3.36374 0 6.07067 0 11.4845 0H12.4416C17.8554 0 20.5623 0 22.2442 1.68707C23.9261 3.37414 23.9261 6.08942 23.9261 11.52V12.48C23.9261 17.9106 23.9261 20.6259 22.2442 22.3129C20.5623 24 17.8554 24 12.4416 24H11.4845C6.07067 24 3.36374 24 1.68187 22.3129C0 20.6259 0 17.9106 0 12.48V11.52Z"/>
    <path d="M12.7305 17.2903C7.2773 17.2903 4.16696 13.5403 4.03735 7.30029H6.7689C6.85862 11.8803 8.87236 13.8203 10.4674 14.2203V7.30029H13.0396V11.2503C14.6147 11.0803 16.2694 9.28029 16.8277 7.30029H19.3998C18.9711 9.7403 17.1767 11.5403 15.9006 12.2803C17.1767 12.8803 19.2205 14.4503 19.9981 17.2903H17.1667C16.5586 15.3903 15.0434 13.9203 13.0396 13.7203V17.2903H12.7305Z" fill="white"/>
  </symbol>
  <symbol id="telegram" viewBox="0 0 24 24">
    <path fill-rule="evenodd" clip-rule="evenodd" d="M0 12C0 5.37256 5.35602 0 11.963 0C18.5701 0 23.9261 5.37256 23.9261 12C23.9261 18.6274 18.5701 24 11.963 24C5.35602 24 0 18.6274 0 12ZM16.1526 16.7884C16.5491 14.6631 17.3281 10.0585 17.5081 8.16097C17.5191 8.00314 17.5123 7.84459 17.488 7.68827C17.4738 7.56238 17.4131 7.44641 17.3177 7.36331C17.1744 7.24664 16.9532 7.22206 16.8542 7.22371C16.4042 7.23174 15.7139 7.47251 12.3916 8.85866C11.2281 9.34421 8.90253 10.349 5.41504 11.8732C4.84873 12.099 4.55207 12.32 4.52505 12.5361C4.4794 12.9013 4.93534 13.0451 5.5562 13.2409C5.64064 13.2675 5.72814 13.2951 5.81783 13.3244C6.42867 13.5236 7.25031 13.7565 7.67746 13.7658C8.06494 13.7742 8.49738 13.6139 8.97477 13.2851C12.2333 11.0788 13.9153 9.9636 14.0209 9.93953C14.0954 9.92264 14.1984 9.9016 14.2686 9.96372C14.3387 10.0259 14.3316 10.1442 14.3242 10.1759C14.2791 10.369 12.4893 12.0381 11.5632 12.9017C11.2745 13.1709 11.0697 13.3619 11.0279 13.4055C10.934 13.5033 10.8383 13.5959 10.7464 13.6848C10.1791 14.2336 9.75381 14.6449 10.7702 15.3168C11.2589 15.6398 11.65 15.907 12.0401 16.1735C12.4659 16.4643 12.8906 16.7544 13.44 17.1157C13.58 17.2077 13.7137 17.3033 13.8439 17.3965C14.3396 17.751 14.785 18.0694 15.3351 18.0186C15.6547 17.9892 15.985 17.6876 16.1526 16.7884Z"/>
  </symbol>
  <symbol id="youtube" viewBox="0 0 24 24">
    <path fill-rule="evenodd" clip-rule="evenodd" d="M21.2382 4.50304C22.2641 4.77987 23.0721 5.59561 23.3464 6.63137C23.8446 8.50876 23.8446 12.4258 23.8446 12.4258C23.8446 12.4258 23.8446 16.3427 23.3464 18.2201C23.0721 19.2559 22.2641 20.0376 21.2382 20.3145C19.3787 20.8175 11.9223 20.8175 11.9223 20.8175C11.9223 20.8175 4.46593 20.8175 2.60637 20.3145C1.58047 20.0376 0.772489 19.2559 0.498256 18.2201C0 16.3427 0 12.4258 0 12.4258C0 12.4258 0 8.50876 0.498256 6.63137C0.772489 5.59561 1.58047 4.77991 2.60637 4.50304C4.46593 4 11.9223 4 11.9223 4C11.9223 4 19.3787 4 21.2382 4.50304ZM9.48337 8.86963V15.9823L15.7155 12.4261L9.48337 8.86963Z"/>
  </symbol>
  <symbol id="ed" viewBox="0 0 24 24">
    <path d="M11.8852 11.2212C12.3575 11.4958 13.1298 11.4958 13.6021 11.2209L22.2299 6.19856C22.7022 5.92367 22.7016 5.47491 22.2288 5.20089L13.6033 0.205296C13.1307 -0.0684319 12.3572 -0.0684319 11.8843 0.205296L3.25622 5.20234C2.78337 5.47607 2.78308 5.92483 3.25535 6.19972L11.8852 11.2212Z"/>
    <path d="M12.3719 13.3628C12.3719 12.815 11.9856 12.1425 11.5133 11.8676L2.85859 6.83134C2.38632 6.55646 2 6.77968 2 7.32713V17.3787C2 17.9264 2.38661 18.5981 2.85946 18.8722L11.5122 23.8831C11.985 24.1569 12.3716 23.9331 12.3716 23.3853L12.3719 13.3628Z"/>
    <path d="M13.975 11.8679C13.5028 12.1428 13.1165 12.8156 13.1165 13.3631V23.3856C13.1165 23.9334 13.5034 24.1572 13.9762 23.8835L22.6283 18.8725C23.1012 18.5988 23.4881 17.9268 23.4881 17.379V7.32542C23.4881 6.77797 23.1018 6.55475 22.6295 6.82964L13.975 11.8679Z"/>
  </symbol>
  <symbol id="sort" viewBox="0 0 24 24">
    <path fill-rule="evenodd" clip-rule="evenodd" d="M12.3757 9.24081C12.1612 9.45588 12.1617 9.80412 12.3767 10.0186C12.5918 10.2331 12.9401 10.2327 13.1546 10.0176L15.0576 8.1096L15.0576 17.4375C15.0576 17.7412 15.3038 17.9875 15.6076 17.9875C15.9113 17.9875 16.1576 17.7412 16.1576 17.4375V8.1096L18.0606 10.0176C18.2751 10.2327 18.6234 10.2331 18.8384 10.0186C19.0535 9.80413 19.054 9.45589 18.8395 9.24082L15.997 6.39093L15.6076 6.00049L15.2182 6.39093L12.3757 9.24081ZM5.15936 14.7596C4.94485 14.5446 4.94531 14.1963 5.16038 13.9818C5.37545 13.7673 5.72369 13.7678 5.9382 13.9828L7.84122 15.8908L7.84122 6.56297C7.84122 6.25921 8.08746 6.01297 8.39122 6.01297C8.69498 6.01297 8.94122 6.25921 8.94122 6.56297L8.94122 15.8908L10.8442 13.9828C11.0588 13.7678 11.407 13.7673 11.6221 13.9818C11.8371 14.1963 11.8376 14.5446 11.6231 14.7596L8.78064 17.6095L8.39122 18L8.0018 17.6095L5.15936 14.7596Z"/>
  </symbol>
  <symbol id="filter" viewBox="0 0 24 24">
    <path d="M16 15L18 15" stroke-width="1.1" stroke-linecap="round"/>
    <path d="M6 15L11 15" stroke-width="1.1" stroke-linecap="round"/>
    <circle cx="13.5" cy="15" r="2"/>
    <path d="M8 9H6" stroke-width="1.1" stroke-linecap="round"/>
    <path d="M13 9L18 9" stroke-width="1.1" stroke-linecap="round"/>
    <circle cx="2.5" cy="2.5" r="2" transform="matrix(-1 0 0 1 13 6.5)"/>
  </symbol>
  <symbol id="trash" viewBox="0 0 24 24">
    <path fill-rule="evenodd" clip-rule="evenodd" d="M10.4118 7.39798C10.4763 7.33349 10.5637 7.29727 10.6549 7.29727H12.4426C12.5338 7.29727 12.6213 7.33349 12.6858 7.39798C12.7503 7.46246 12.7865 7.54992 12.7865 7.64112V7.98551H10.3111V7.64112C10.3111 7.54992 10.3473 7.46246 10.4118 7.39798ZM9.21108 7.98551V7.64112C9.21108 7.25818 9.3632 6.89093 9.63398 6.62016C9.90475 6.34939 10.272 6.19727 10.6549 6.19727H12.4426C12.8256 6.19727 13.1928 6.34939 13.4636 6.62016C13.7344 6.89093 13.8865 7.25818 13.8865 7.64112V7.98551H14.6526C14.6608 7.98515 14.669 7.98497 14.6773 7.98497C14.6855 7.98497 14.6938 7.98515 14.702 7.98551H15.5712C15.875 7.98551 16.1212 8.23176 16.1212 8.53551C16.1212 8.83927 15.875 9.08551 15.5712 9.08551H15.2273V14.7919C15.2273 15.1749 15.0751 15.5421 14.8044 15.8129C14.5336 16.0837 14.1663 16.2358 13.7834 16.2358H9.31416C8.93122 16.2358 8.56397 16.0837 8.2932 15.8129C8.02243 15.5421 7.87031 15.1749 7.87031 14.7919V9.08551H7.52656C7.22281 9.08551 6.97656 8.83927 6.97656 8.53551C6.97656 8.23176 7.22281 7.98551 7.52656 7.98551H8.3956C8.40379 7.98515 8.41203 7.98497 8.42031 7.98497C8.42858 7.98497 8.43682 7.98515 8.44501 7.98551H9.21108ZM8.97031 9.08551V14.7919C8.97031 14.8831 9.00653 14.9706 9.07102 15.0351C9.1355 15.0995 9.22296 15.1358 9.31416 15.1358H13.7834C13.8746 15.1358 13.9621 15.0996 14.0266 15.0351C14.091 14.9706 14.1273 14.8831 14.1273 14.7919V9.08551H8.97031Z"/>
  </symbol>
  <symbol id="arrow-down-left" viewBox="0 0 32 32">
    <path d="M22 10L10.4286 21.5714M20.5 22H10V11.5" stroke-width="1.5" stroke-linecap="round"/>
  </symbol>
  <symbol id="play" viewBox="0 0 38 43">
    <path d="M35.6 19.5L3.1 0.49999C1.2 -0.60001 0 0.29999 0 2.49999V40.5C0 42.7 1.2 43.6 3.1 42.5L35.8 23.5C37.7 22.4 37.5 20.6 35.6 19.5Z"/>
  </symbol>
</svg>
