<svg width="24" height="24" viewBox="0 0 24 24" fill="none" xmlns="http://www.w3.org/2000/svg">
<g clip-path="url(#clip0_1_355)">
<path fill-rule="evenodd" clip-rule="evenodd" d="M0 12C0 5.37256 5.35602 0 11.963 0C18.5701 0 23.9261 5.37256 23.9261 12C23.9261 18.6274 18.5701 24 11.963 24C5.35602 24 0 18.6274 0 12ZM16.1526 16.7884C16.5491 14.6631 17.3281 10.0585 17.5081 8.16097C17.5191 8.00314 17.5123 7.84459 17.488 7.68827C17.4738 7.56238 17.4131 7.44641 17.3177 7.36331C17.1744 7.24664 16.9532 7.22206 16.8542 7.22371C16.4042 7.23174 15.7139 7.47251 12.3916 8.85866C11.2281 9.34421 8.90253 10.349 5.41504 11.8732C4.84873 12.099 4.55207 12.32 4.52505 12.5361C4.4794 12.9013 4.93534 13.0451 5.5562 13.2409C5.64064 13.2675 5.72814 13.2951 5.81783 13.3244C6.42867 13.5236 7.25031 13.7565 7.67746 13.7658C8.06494 13.7742 8.49738 13.6139 8.97477 13.2851C12.2333 11.0788 13.9153 9.9636 14.0209 9.93953C14.0954 9.92264 14.1984 9.9016 14.2686 9.96372C14.3387 10.0259 14.3316 10.1442 14.3242 10.1759C14.2791 10.369 12.4893 12.0381 11.5632 12.9017C11.2745 13.1709 11.0697 13.3619 11.0279 13.4055C10.934 13.5033 10.8383 13.5959 10.7464 13.6848C10.1791 14.2336 9.75381 14.6449 10.7702 15.3168C11.2589 15.6398 11.65 15.907 12.0401 16.1735C12.4659 16.4643 12.8906 16.7544 13.44 17.1157C13.58 17.2077 13.7137 17.3033 13.8439 17.3965C14.3396 17.751 14.785 18.0694 15.3351 18.0186C15.6547 17.9892 15.985 17.6876 16.1526 16.7884Z" fill="#CEDAE7"/>
</g>
<defs>
<clipPath id="clip0_1_355">
<rect width="24" height="24" fill="white"/>
</clipPath>
</defs>
</svg>
