<svg width="24" height="24" viewBox="0 0 24 24" fill="none" xmlns="http://www.w3.org/2000/svg">
<g clip-path="url(#clip0_1_351)">
<path d="M0 11.52C0 6.08942 0 3.37414 1.68187 1.68707C3.36374 0 6.07067 0 11.4845 0H12.4416C17.8554 0 20.5623 0 22.2442 1.68707C23.9261 3.37414 23.9261 6.08942 23.9261 11.52V12.48C23.9261 17.9106 23.9261 20.6259 22.2442 22.3129C20.5623 24 17.8554 24 12.4416 24H11.4845C6.07067 24 3.36374 24 1.68187 22.3129C0 20.6259 0 17.9106 0 12.48V11.52Z" fill="#CEDAE7"/>
<path d="M12.7305 17.2903C7.2773 17.2903 4.16696 13.5403 4.03735 7.30029H6.7689C6.85862 11.8803 8.87236 13.8203 10.4674 14.2203V7.30029H13.0396V11.2503C14.6147 11.0803 16.2694 9.28029 16.8277 7.30029H19.3998C18.9711 9.7403 17.1767 11.5403 15.9006 12.2803C17.1767 12.8803 19.2205 14.4503 19.9981 17.2903H17.1667C16.5586 15.3903 15.0434 13.9203 13.0396 13.7203V17.2903H12.7305Z" fill="white"/>
</g>
<defs>
<clipPath id="clip0_1_351">
<rect width="24" height="24" fill="white"/>
</clipPath>
</defs>
</svg>
