<svg width="24" height="24" viewBox="0 0 24 24" fill="none" xmlns="http://www.w3.org/2000/svg">
<path fill-rule="evenodd" clip-rule="evenodd" d="M21.2382 4.50304C22.2641 4.77987 23.0721 5.59561 23.3464 6.63137C23.8446 8.50876 23.8446 12.4258 23.8446 12.4258C23.8446 12.4258 23.8446 16.3427 23.3464 18.2201C23.0721 19.2559 22.2641 20.0376 21.2382 20.3145C19.3787 20.8175 11.9223 20.8175 11.9223 20.8175C11.9223 20.8175 4.46593 20.8175 2.60637 20.3145C1.58047 20.0376 0.772489 19.2559 0.498256 18.2201C0 16.3427 0 12.4258 0 12.4258C0 12.4258 0 8.50876 0.498256 6.63137C0.772489 5.59561 1.58047 4.77991 2.60637 4.50304C4.46593 4 11.9223 4 11.9223 4C11.9223 4 19.3787 4 21.2382 4.50304ZM9.48337 8.86963V15.9823L15.7155 12.4261L9.48337 8.86963Z" fill="#CEDAE7"/>
</svg>
